<svg width="412" height="134" viewBox="0 0 412 134" fill="none" xmlns="http://www.w3.org/2000/svg">
<path d="M27.3744 104.062C24.5748 104.037 21.7836 103.754 19.0358 103.216C16.0671 102.663 13.1573 101.83 10.3452 100.728C7.83295 99.7841 5.46342 98.4959 3.30422 96.9005C2.44539 96.3377 1.7172 95.5968 1.16885 94.7279C0.620508 93.8591 0.264784 92.8825 0.125718 91.8641C-0.063009 90.863 -0.039018 89.8334 0.196128 88.8423C0.465225 87.6591 0.89148 86.5174 1.46351 85.4477C2.16408 84.1245 2.98213 82.867 3.90774 81.6906C4.49247 80.768 5.36095 80.0609 6.38215 79.676C7.47843 79.3957 8.63284 79.4448 9.70147 79.817C11.2666 80.1174 12.7875 80.6149 14.2278 81.2977C15.7366 82.0095 17.2923 82.765 18.895 83.5641C20.5007 84.371 22.1533 85.0807 23.8438 85.6895C25.5205 86.2984 27.2907 86.6086 29.0743 86.6061C31.1901 86.7186 33.301 86.3069 35.2201 85.4074C35.8658 85.1229 36.4161 84.6581 36.805 84.0686C37.1939 83.4791 37.4049 82.7899 37.4128 82.0834C37.4415 81.1605 37.1137 80.2621 36.4975 79.5753C35.7759 78.8377 34.9094 78.258 33.9527 77.873C32.7099 77.3558 31.4368 76.9152 30.1405 76.5534C28.682 76.1304 27.1229 75.7375 25.5538 75.3547C23.9846 74.972 22.2546 74.5086 20.4641 73.9345C18.1599 73.2665 15.913 72.4143 13.745 71.3861C11.5629 70.3722 9.55879 69.0116 7.81046 67.3569C6.01601 65.6341 4.59506 63.5597 3.63616 61.2629C2.51442 58.4394 1.98046 55.4162 2.06702 52.3787C1.92435 48.2757 3.03686 44.227 5.25559 40.7748C7.5902 37.494 10.8671 35.003 14.6503 33.6331C19.5398 31.856 24.7194 31.0154 29.9192 31.1552C31.6197 31.1534 33.3189 31.2476 35.0088 31.4373C36.7105 31.6312 38.3928 31.9681 40.0381 32.4445C41.6953 32.9184 43.3241 33.4867 44.9165 34.1469C46.5763 34.8293 48.1834 35.634 49.7245 36.5543C52.5543 37.8973 54.0162 39.6903 54.11 41.9331C54.1015 44.4837 53.2569 46.9609 51.706 48.9841C50.8602 50.3019 49.7546 51.433 48.4571 52.3081C47.4142 52.9984 46.152 53.2749 44.9165 53.0837C43.2212 52.639 41.5839 51.9967 40.0381 51.1699C38.298 50.2734 36.4573 49.4575 34.526 48.692C32.7043 47.9649 30.7637 47.5824 28.8027 47.5638C27.408 47.5301 26.0184 47.745 24.6988 48.1984C23.7144 48.529 22.8359 49.1166 22.154 49.9007C21.5881 50.601 21.2856 51.4779 21.299 52.3787C21.2697 52.9086 21.3481 53.439 21.5297 53.9377C21.7112 54.4364 21.9921 54.8929 22.3551 55.2796C23.1925 56.064 24.1819 56.6674 25.2621 57.0524C26.6423 57.5741 28.0573 57.9982 29.4967 58.3216C31.096 58.7044 32.8462 59.0771 34.7272 59.4598C37.3736 59.9579 39.9923 60.5933 42.5729 61.3636C45.1881 62.1353 47.6684 63.3076 49.9257 64.8387C52.1788 66.3875 54.0222 68.4617 55.2969 70.8824C56.7807 74.0245 57.4714 77.4834 57.3087 80.9552C57.3087 88.4158 54.7169 94.1238 49.5334 98.079C44.3499 102.034 36.9635 104.029 27.3744 104.062Z" fill="#2EABF1"/>
<path d="M112.208 43.4642C112.208 46.6775 111.705 49.0345 110.72 50.5152C109.842 51.9464 108.448 52.985 106.827 53.4162C105.119 53.8614 103.361 54.0782 101.596 54.0608L92.1313 53.8392V75.4656C92.1099 76.7281 92.2348 77.989 92.5035 79.2227C92.6315 80.0301 92.9796 80.7865 93.5093 81.4085C94.0706 81.929 94.7685 82.2784 95.521 82.4158C96.5438 82.6225 97.5859 82.7171 98.6291 82.6978C100.482 82.6762 102.331 82.8655 104.141 83.2619C105.675 83.5909 107.021 84.5049 107.893 85.8103C108.788 87.1299 109.231 89.356 109.231 92.4685C109.231 95.8597 108.715 98.3141 107.682 99.8317C107.233 100.534 106.643 101.135 105.951 101.598C105.259 102.061 104.478 102.375 103.658 102.521C101.953 102.808 100.227 102.949 98.4984 102.944C94.2977 103.022 90.1077 102.496 86.0559 101.383C82.8627 100.565 79.9378 98.927 77.5704 96.6305C75.203 94.3339 73.4751 91.4584 72.5573 88.2883C71.3951 84.4088 70.8453 80.3712 70.9278 76.3217V53.7586H65.979C63.2431 53.5773 61.342 52.7514 60.2557 51.1397C59.1694 49.5281 58.6262 46.9696 58.6262 43.2829C58.6262 39.8917 59.2968 37.3668 60.6379 35.7082C61.3647 34.8678 62.2761 34.2076 63.3005 33.7794C64.325 33.3512 65.4346 33.1667 66.5423 33.2403H70.9178V18.9772C70.899 17.2188 71.0642 15.4633 71.4107 13.7393C71.6 12.9607 71.942 12.2275 72.4169 11.5825C72.8918 10.9375 73.49 10.3935 74.1768 9.98217C75.6755 8.97489 78.1298 8.50146 81.5195 8.50146C84.9093 8.50146 87.3635 9.06554 88.8723 10.0728C89.5781 10.525 90.1858 11.1147 90.6592 11.8069C91.1327 12.4991 91.4623 13.2796 91.6284 14.102C91.9665 15.8035 92.135 17.5344 92.1313 19.2693V32.9784L101.596 32.7065C103.305 32.7017 105.01 32.867 106.686 33.2C108.307 33.564 109.717 34.5564 110.609 35.96C111.685 37.4709 112.208 39.979 112.208 43.4642Z" fill="#2EABF1"/>
<path d="M146.136 102.793C141.901 102.831 137.707 101.962 133.834 100.245C130.083 98.5608 126.715 96.1271 123.937 93.093C121.049 89.9308 118.816 86.2264 117.368 82.1942C115.772 77.7677 114.982 73.0904 115.035 68.3844V42.7591C115.021 41.0009 115.186 39.2459 115.528 37.5212C115.702 36.7115 116.036 35.9446 116.509 35.2651C116.982 34.5855 117.585 34.0068 118.284 33.5626C119.792 32.5553 122.307 32.0013 125.777 32.0013C129.247 32.0013 131.742 32.5151 133.201 33.5626C134.592 34.498 135.557 35.9463 135.886 37.5918C136.225 39.3405 136.39 41.1187 136.379 42.9001V68.3844C136.317 70.8546 136.827 73.3057 137.868 75.5461C138.795 77.5147 140.333 79.1297 142.253 80.1494C144.372 81.2301 146.726 81.7634 149.103 81.7006C151.551 81.7824 153.978 81.2235 156.144 80.0789C158.06 79.0081 159.631 77.4109 160.67 75.4756C161.792 73.2984 162.349 70.8737 162.29 68.4247V42.6181C162.279 40.8595 162.448 39.1045 162.793 37.3802C162.964 36.577 163.296 35.8171 163.77 35.1469C164.244 34.4767 164.849 33.9102 165.549 33.482C167.048 32.4748 169.572 32.0013 173.042 32.0013C176.513 32.0013 178.997 32.5151 180.466 33.5626C181.857 34.498 182.822 35.9463 183.151 37.5918C183.481 39.2943 183.646 41.0248 183.644 42.7591V92.5994C183.652 94.2907 183.487 95.9783 183.151 97.6358C182.977 98.4178 182.642 99.1547 182.167 99.7999C181.693 100.445 181.089 100.984 180.395 101.383C178.887 102.33 176.436 102.803 173.042 102.803C171.025 102.887 169.01 102.597 167.098 101.947C165.869 101.534 164.771 100.8 163.919 99.8216C163.294 99.0446 162.881 98.1176 162.722 97.1322C162.59 96.289 162.519 95.4373 162.511 94.5838L164.342 93.0225C163.8 93.809 163.187 94.544 162.511 95.2184C161.347 96.3993 160.093 97.4872 158.759 98.4719C157.084 99.7109 155.255 100.727 153.318 101.494C151.031 102.392 148.592 102.834 146.136 102.793Z" fill="#2EABF1"/>
<path d="M258.108 5.37889C257.747 3.79258 256.798 2.4028 255.452 1.49078C254.017 0.496926 251.509 0 247.929 0C244.535 0 242.131 0.520429 240.717 1.56129C240.05 2.02704 239.487 2.62509 239.061 3.31823C238.635 4.01137 238.357 4.7848 238.242 5.59042C238.005 7.30599 237.888 9.03596 237.89 10.7678V38.8509C236.3 37.3518 234.517 36.0714 232.589 35.0433C228.897 33.1419 224.79 32.1933 220.64 32.2834C216.423 32.2807 212.262 33.2492 208.479 35.1139C204.589 37.0386 201.079 39.6527 198.119 42.8296C195.057 46.0894 192.616 49.882 190.917 54.0205C189.168 58.2127 188.275 62.7131 188.291 67.2562C188.265 71.9373 189.157 76.5779 190.917 80.915C192.592 85.1133 195.007 88.9757 198.048 92.3174C200.955 95.5367 204.46 98.1575 208.368 100.033C212.211 101.864 216.415 102.807 220.67 102.793C224.905 102.886 229.092 101.887 232.831 99.8922C234.672 98.8767 236.381 97.6386 237.92 96.2055V96.5581C238.081 97.5205 238.43 98.4415 238.948 99.2679C239.466 100.094 240.142 100.81 240.938 101.373C242.497 102.38 244.871 102.934 248.079 102.934C251.573 102.934 254.048 102.414 255.503 101.373C256.894 100.438 257.859 98.9891 258.188 97.3437C258.523 95.6419 258.688 93.9109 258.681 92.1764V10.5865C258.687 8.83453 258.495 7.08747 258.108 5.37889ZM235.275 74.7605C234.062 76.861 232.356 78.6345 230.306 79.9278C228.248 81.2062 225.867 81.8669 223.446 81.8316C221.01 81.835 218.618 81.177 216.526 79.9278C214.396 78.6946 212.638 76.9096 211.436 74.7605C210.202 72.556 209.567 70.0655 209.595 67.5383C209.562 65.0192 210.172 62.5334 211.366 60.316C212.506 58.1862 214.221 56.4202 216.314 55.2192C218.444 53.9877 220.866 53.3544 223.325 53.3859C225.805 53.353 228.244 54.0159 230.366 55.2998C232.43 56.5632 234.14 58.3308 235.335 60.4369C236.555 62.638 237.188 65.116 237.176 67.6331C237.164 70.1502 236.506 72.6218 235.265 74.8108L235.275 74.7605Z" fill="#2EABF1"/>
<path d="M333.326 5.37889C332.954 3.78945 331.994 2.4002 330.64 1.49078C329.225 0.496926 326.727 0 323.147 0C319.747 0 317.343 0.520429 315.935 1.56129C315.265 2.02392 314.7 2.62113 314.274 3.31484C313.848 4.00855 313.571 4.78355 313.46 5.59042C313.218 7.30547 313.101 9.03579 313.108 10.7678V38.8509C311.517 37.3527 309.734 36.0724 307.807 35.0433C304.115 33.1432 300.008 32.1946 295.858 32.2834C291.641 32.2786 287.479 33.2471 283.697 35.1139C279.794 37.033 276.274 39.6475 273.306 42.8296C270.239 46.0865 267.794 49.8796 266.094 54.0205C264.362 58.2165 263.48 62.7157 263.499 67.2562C263.475 71.9362 264.364 76.5759 266.114 80.915C267.793 85.1138 270.212 88.9761 273.256 92.3174C276.163 95.5367 279.668 98.1575 283.576 100.033C287.418 101.865 291.622 102.808 295.878 102.793C300.113 102.886 304.3 101.887 308.039 99.8922C309.878 98.8742 311.587 97.6362 313.128 96.2055V96.5581C313.285 97.5217 313.632 98.4442 314.151 99.2711C314.669 100.098 315.347 100.813 316.146 101.373C317.705 102.38 320.079 102.934 323.287 102.934C326.768 102.934 329.242 102.414 330.711 101.373C332.102 100.438 333.067 98.9891 333.396 97.3437C333.726 95.6412 333.891 93.9107 333.889 92.1764V10.5865C333.899 8.83491 333.71 7.08786 333.326 5.37889ZM310.493 74.7605C309.282 76.8565 307.585 78.6292 305.544 79.9278C303.492 81.2014 301.119 81.8619 298.704 81.8316C296.265 81.8348 293.87 81.1769 291.774 79.9278C289.631 78.6958 287.856 76.9116 286.634 74.7605C285.403 72.5552 284.771 70.0647 284.803 67.5383C284.794 65.0145 285.424 62.5296 286.634 60.316C287.774 58.1862 289.489 56.4202 291.583 55.2192C293.722 53.9822 296.154 53.3454 298.624 53.3759C301.103 53.344 303.542 54.0069 305.665 55.2897C307.704 56.5652 309.389 58.3356 310.563 60.4369C311.776 62.6401 312.406 65.1173 312.394 67.633C312.382 70.1488 311.727 72.6196 310.493 74.8108V74.7605Z" fill="#2EABF1"/>
<path d="M410.354 46.3349L374.747 126.293C373.148 130.07 371.397 132.337 369.517 133.022C367.636 133.707 364.759 133.233 360.886 131.531C357.014 129.829 354.791 127.945 354.177 125.87C353.564 123.795 354.057 121.005 355.656 117.52L367.807 90.3229L339.944 47.997C337.872 44.7938 337.027 42.1446 337.4 40.0696C337.772 37.9946 339.663 35.8693 343.052 33.7036C346.734 31.4406 349.587 30.5676 351.612 31.0847C353.637 31.6018 355.686 33.4652 357.758 36.6751L377.956 67.649L391.142 38.2767C392.752 34.5094 394.512 32.233 396.453 31.5581C398.395 30.8832 401.281 31.2459 405.144 32.7568C408.919 34.5497 411.112 36.4367 411.722 38.4177C412.366 40.3517 411.883 43.0008 410.354 46.3349Z" fill="#2EABF1"/>
</svg>
